<svg width="160" height="48" viewBox="0 0 160 48" fill="none" xmlns="http://www.w3.org/2000/svg">
  <rect width="160" height="48" rx="18" fill="url(#aurora)" opacity="0.08"/>
  <path d="M26 33.6L15.2 19.4C14.4 18.3 13.9 17.1 13.9 15.8C13.9 11.9 16.9 8.8 21.1 8.8C24.1 8.8 26.7 10.5 28 13.1L32.2 10.9C30.3 6.7 26.2 4 21.1 4C14.1 4 8.8 9.1 8.8 15.8C8.8 18.9 9.9 21.5 12.1 24.3L22.9 38.6H9.7V43.7H32.9V38.2L26 33.6Z" fill="url(#aurora)"/>
  <path d="M52.3 43.9C44.1 43.9 38.5 38.2 38.5 30.2C38.5 22.1 44.2 16.5 52.6 16.5C60.7 16.5 66.2 22.1 66.2 30.2C66.2 38.3 60.6 43.9 52.3 43.9ZM52.5 38.8C57 38.8 60 35.3 60 30.3C60 25.2 56.9 21.7 52.4 21.7C47.8 21.7 44.8 25.2 44.8 30.3C44.8 35.3 47.8 38.8 52.5 38.8Z" fill="white" opacity="0.92"/>
  <path d="M76.8 43.2V17.2H82.6L83.3 20.8C85.3 18.4 88.3 16.6 92.1 16.6C97.9 16.6 101.5 20.2 101.5 26V43.2H94.9V27.2C94.9 24.1 93.2 22.4 90.3 22.4C87.1 22.4 85 24.7 85 28.2V43.2H76.8Z" fill="white" opacity="0.92"/>
  <path d="M129.2 43.2L127.1 38.5H114.2L112.1 43.2H104.6L117.3 17.2H124.2L137 43.2H129.2ZM120.6 22.8L116.6 31.9H124.7L120.6 22.8Z" fill="white" opacity="0.92"/>
  <defs>
    <linearGradient id="aurora" x1="10" y1="6" x2="140" y2="44" gradientUnits="userSpaceOnUse">
      <stop stop-color="#3EE4FF"/>
      <stop offset="0.45" stop-color="#8B5CF6"/>
      <stop offset="1" stop-color="#34D399"/>
    </linearGradient>
  </defs>
</svg>
