<svg width="48" height="48" viewBox="0 0 48 48" fill="none" xmlns="http://www.w3.org/2000/svg">
  <defs>
    <radialGradient id="halo" cx="50%" cy="50%" r="65%">
      <stop offset="0" stop-color="#3EE4FF" stop-opacity="0.65"/>
      <stop offset="0.55" stop-color="#8B5CF6" stop-opacity="0.45"/>
      <stop offset="1" stop-color="#060914" stop-opacity="0"/>
    </radialGradient>
    <linearGradient id="stroke" x1="8" y1="10" x2="40" y2="38" gradientUnits="userSpaceOnUse">
      <stop stop-color="#3EE4FF"/>
      <stop offset="0.5" stop-color="#8B5CF6"/>
      <stop offset="1" stop-color="#34D399"/>
    </linearGradient>
  </defs>
  <circle cx="24" cy="24" r="23" fill="#0B1020" stroke="url(#stroke)" stroke-width="1.6"/>
  <circle cx="24" cy="24" r="23" fill="url(#halo)" opacity="0.45"/>
  <path d="M30.8 34.6L20 20.4C19.2 19.3 18.7 18.1 18.7 16.8C18.7 12.9 21.7 9.8 25.9 9.8C28.9 9.8 31.5 11.5 32.8 14.1L37 11.9C35.1 7.7 31 5 25.9 5C18.9 5 13.6 10.1 13.6 16.8C13.6 19.9 14.7 22.5 16.9 25.3L27.7 39.6H14.5V44.7H37.7V39.2L30.8 34.6Z" fill="#F7F9FC"/>
</svg>
