<svg xmlns="http://www.w3.org/2000/svg" width="960" height="320" viewBox="0 0 960 320">
  <style>
    .node { fill:#f5f5f5; stroke:#333; stroke-width:1.4; rx:8; ry:8; }
    .text { font-family: monospace; font-size:14px; }
    .arrow { stroke:#333; stroke-width:1.2; marker-end:url(#arrow); fill:none; }
  </style>
  <defs>
    <marker id="arrow" viewBox="0 0 10 10" refX="6" refY="5" markerWidth="6" markerHeight="6" orient="auto-start-reverse">
      <path d="M 0 0 L 10 5 L 0 10 z" fill="#333" />
    </marker>
  </defs>
  <rect class="node" x="20" y="40" width="120" height="60" />
  <text class="text" x="30" y="75">UI</text>

  <rect class="node" x="180" y="40" width="140" height="60" />
  <text class="text" x="190" y="75">SSE Gateway</text>

  <rect class="node" x="360" y="40" width="120" height="60" />
  <text class="text" x="370" y="75">API</text>

  <rect class="node" x="520" y="40" width="120" height="60" />
  <text class="text" x="530" y="75">Runner</text>

  <rect class="node" x="700" y="40" width="180" height="60" />
  <text class="text" x="710" y="75">Toron v2.5H+ Engine</text>

  <rect class="node" x="520" y="160" width="120" height="60" />
  <text class="text" x="530" y="195">Snapshot</text>

  <rect class="node" x="700" y="160" width="120" height="60" />
  <text class="text" x="710" y="195">Reports</text>

  <rect class="node" x="860" y="160" width="80" height="60" />
  <text class="text" x="870" y="195">Warroom</text>

  <line class="arrow" x1="140" y1="70" x2="180" y2="70" />
  <line class="arrow" x1="320" y1="70" x2="360" y2="70" />
  <line class="arrow" x1="480" y1="70" x2="520" y2="70" />
  <line class="arrow" x1="640" y1="70" x2="700" y2="70" />

  <line class="arrow" x1="790" y1="100" x2="580" y2="160" />
  <line class="arrow" x1="790" y1="100" x2="760" y2="160" />
  <line class="arrow" x1="760" y1="190" x2="860" y2="190" />

  <text class="text" x="200" y="130">health/metrics</text>
</svg>
