<svg width="24" height="24" viewBox="0 0 24 24" fill="none" xmlns="http://www.w3.org/2000/svg">
  <path d="M12 2a10 10 0 00-3.16 19.49c.5.09.68-.22.68-.48v-1.69c-2.78.61-3.37-1.34-3.37-1.34-.45-1.15-1.1-1.46-1.1-1.46-.9-.62.07-.61.07-.61 1 .07 1.53 1.04 1.53 1.04.89 1.52 2.34 1.08 2.91.83.09-.65.35-1.08.63-1.33-2.22-.25-4.55-1.11-4.55-4.95 0-1.09.39-1.99 1.03-2.69-.1-.25-.45-1.28.1-2.66 0 0 .85-.27 2.8 1.02a9.74 9.74 0 015.1 0c1.95-1.29 2.8-1.02 2.8-1.02.55 1.38.2 2.41.1 2.66.64.7 1.03 1.6 1.03 2.69 0 3.85-2.34 4.69-4.57 4.94.36.31.68.92.68 1.86v2.75c0 .26.18.58.69.48A10 10 0 0012 2z" fill="currentColor"/>
</svg>
